<svg xmlns="http://www.w3.org/2000/svg" viewBox="-12 -12 264 264" width="264" height="264"><defs><filter id="h" x="-15%" y="-15%" width="130%" height="130%"><feMorphology in="SourceAlpha" operator="dilate" radius="7" result="d"/><feFlood flood-color="#F3ECDE"/><feComposite in2="d" operator="in" result="o"/><feMerge><feMergeNode in="o"/><feMergeNode in="SourceGraphic"/></feMerge></filter></defs><g filter="url(#h)"><g transform="rotate(158 120 122)"><polygon points="80,70 160,70 148,200 92,200" fill="#1B9A63" stroke="#1B9A63" stroke-width="2" stroke-linejoin="round" /><polygon points="84,70 156,70 145,196 95,196" fill="#2FD284" stroke="#2FD284" stroke-width="2" stroke-linejoin="round" /><rect x="72" y="56" width="96" height="20" rx="10" fill="#F3ECDE" /><rect x="104" y="112" width="32" height="14" rx="7" fill="#F3ECDE" /><rect x="100" y="140" width="40" height="14" rx="7" fill="#F3ECDE" /></g><path d="M46,150 C20,70 90,16 160,32 C196,40 214,84 204,122" fill="none" stroke="#1E88E5" stroke-width="12" stroke-linecap="round" stroke-linejoin="round" /><polygon points="186,120 224,118 206,150" fill="#1E88E5" stroke="#1E88E5" stroke-width="2" stroke-linejoin="round" /><circle cx="76" cy="206" r="8" fill="#8FCBFF" /><circle cx="112" cy="224" r="6" fill="#8FCBFF" /><circle cx="166" cy="214" r="7" fill="#8FCBFF" /><circle cx="40" cy="60" r="7" fill="#DE68F0" /><circle cx="214" cy="40" r="6" fill="#DE68F0" /></g></svg>