<svg xmlns="http://www.w3.org/2000/svg" viewBox="-12 -12 264 264" width="264" height="264"><defs><filter id="h" x="-15%" y="-15%" width="130%" height="130%"><feMorphology in="SourceAlpha" operator="dilate" radius="7" result="d"/><feFlood flood-color="#F3ECDE"/><feComposite in2="d" operator="in" result="o"/><feMerge><feMergeNode in="o"/><feMergeNode in="SourceGraphic"/></feMerge></filter></defs><g filter="url(#h)"><rect x="44" y="188" width="152" height="42" rx="9" fill="#1B9A63" /><rect x="44" y="188" width="152" height="38" rx="9" fill="#2FD284" /><path d="M70,200 H110 M130,210 H168" fill="none" stroke="#1B9A63" stroke-width="4" stroke-linecap="round" stroke-linejoin="round" /><rect x="44" y="147" width="48" height="38" rx="9" fill="#1B9A63" /><rect x="44" y="144" width="48" height="38" rx="9" fill="#2FD284" /><rect x="96" y="147" width="48" height="38" rx="9" fill="#1B9A63" /><rect x="96" y="144" width="48" height="38" rx="9" fill="#2FD284" /><rect x="148" y="147" width="48" height="38" rx="9" fill="#1B9A63" /><rect x="148" y="144" width="48" height="38" rx="9" fill="#2FD284" /><rect x="44" y="100" width="152" height="42" rx="9" fill="#1B9A63" /><rect x="44" y="100" width="152" height="38" rx="9" fill="#2FD284" /><path d="M70,112 H110 M130,122 H168" fill="none" stroke="#1B9A63" stroke-width="4" stroke-linecap="round" stroke-linejoin="round" /><rect x="44" y="59" width="48" height="38" rx="9" fill="#1B9A63" /><rect x="44" y="56" width="48" height="38" rx="9" fill="#2FD284" /><rect x="96" y="59" width="48" height="38" rx="9" fill="#1B9A63" /><rect x="96" y="56" width="48" height="38" rx="9" fill="#2FD284" /><rect x="148" y="59" width="48" height="38" rx="9" fill="#1B9A63" /><rect x="148" y="56" width="48" height="38" rx="9" fill="#2FD284" /><rect x="200" y="100" width="44" height="20" rx="8" fill="#1E88E5" transform="rotate(-8 222 110)"/><polygon points="34,8 70,8 70,44 34,44" fill="#DE68F0" stroke="#DE68F0" stroke-width="2" stroke-linejoin="round" transform="rotate(-10 52 26)"/><path d="M52,18 V30" fill="none" stroke="#0A0A0A" stroke-width="8" stroke-linecap="round" stroke-linejoin="round" /><circle cx="52" cy="38" r="4" fill="#0A0A0A" /></g></svg>